# xmcd
#
# Track frame offsets:
#	150
#	19697
#	40329
#	62172
#	87786
#	106999
#	125629
#	145967
#	162461
#	184290
#	206556
#	223493
#	239603
#	257966
#	279623
#
# Disc length: 4058 seconds
#
# Revision: 0
# Processed by: cddbd v1.5.1PL0 Copyright (c) Steve Scherf et al.
# Submitted via: dBpowerAMP V4.0
#
DISCID=f00fd80f
DTITLE=Mean Gene Kelton and The Die Hards - Most Requested
DYEAR=2000
DGENRE=Blues
TTITLE0=Texas Honey
TTITLE1=Too White To Play The Blues
TTITLE2=If This Guitar Could Talk
TTITLE3=Tears On My Guitar
TTITLE4=Going Back To Memphis
TTITLE5=Cruisin Texas Avenue
TTITLE6=Sinking Deeper ( Into The Blues )
TTITLE7=Big Legged Mama
TTITLE8=Leaving Paradise
TTITLE9=The Avon Man
TTITLE10=Little Black Dress
TTITLE11=My Blow Up Lover
TTITLE12=Let Me Pump Your Gas
TTITLE13=The Texas City Dyke
TTITLE14=My Baby Don't Wear No Panties
EXTD=
EXTT0=
EXTT1=
EXTT2=
EXTT3=
EXTT4=
EXTT5=
EXTT6=
EXTT7=
EXTT8=
EXTT9=
EXTT10=
EXTT11=
EXTT12=
EXTT13=
EXTT14=
PLAYORDER=
